<?xml version="1.0" encoding="UTF-8"?>
<svg xmlns="http://www.w3.org/2000/svg" version="1.1" viewBox="0 0 216.5 68.9">
  <defs>
    <style>
      .cls-1 {
        fill: #fff;
      }
    </style>
  </defs>
  <!-- Generator: Adobe Illustrator 28.6.0, SVG Export Plug-In . SVG Version: 1.2.0 Build 709)  -->
  <g>
    <g id="Layer_1">
      <path class="cls-1" d="M71.8,31.9c-5.4,0-9.9-1.7-13.5-5l4.4-5.6c2.9,2.4,6,3.6,9.3,3.6s3.3-.7,3.3-2.1-.3-1.1-1-1.6c-.7-.4-1.9-.9-3.8-1.3-1.8-.4-3.2-.9-4.3-1.3-1.1-.4-2.2-1-3.3-1.7-1.1-.7-1.9-1.6-2.4-2.7s-.8-2.4-.8-3.9c0-2.8,1-5.2,3-6.9s4.7-2.7,8.1-2.7,8.6,1.3,11.8,4l-4,5.9c-2.7-2-5.4-3-8-3s-1.6.2-2.1.6c-.5.4-.7.9-.7,1.5s.3,1.2,1,1.6,2,.8,4,1.3c3.6.8,6.3,1.9,8.1,3.3,1.8,1.4,2.7,3.4,2.7,6.1s-1.1,5.4-3.2,7.2-4.9,2.6-8.4,2.6h0Z"/>
      <path class="cls-1" d="M84.7,31.4V0h7.8v15.9l6-7.8h8.8l-7.7,9.3,7.9,13.9h-8.6l-4.5-7.9-2,2.5v5.5h-7.8Z"/>
      <path class="cls-1" d="M114.8,31.9c-2.3,0-4.2-.8-5.5-2.3-1.3-1.5-2-3.6-2-6.3v-15.2h7.8v12.6c0,1.2.3,2.2.9,2.9s1.3,1,2.3,1,1.7-.3,2.3-1,.9-1.6.9-2.9v-12.6h7.8v23.3h-7.8v-3.2c-1.8,2.5-4.1,3.7-6.6,3.7Z"/>
      <path class="cls-1" d="M131.5,31.4V0h7.8v31.4h-7.8Z"/>
      <path class="cls-1" d="M141.8,31.4V0h7.8v31.4h-7.8Z"/>
      <path class="cls-1" d="M71.8,68.9c-5.4,0-9.9-1.7-13.5-5l4.4-5.5c2.9,2.4,6,3.6,9.3,3.6s3.3-.7,3.3-2.2-.3-1.2-1-1.6c-.7-.4-1.9-.8-3.8-1.3-1.8-.4-3.2-.8-4.3-1.3-1.1-.4-2.2-1-3.3-1.7-1.1-.7-1.9-1.6-2.4-2.7s-.8-2.4-.8-3.9c0-2.8,1-5.2,3-6.9,2-1.8,4.7-2.7,8.1-2.7s8.6,1.3,11.8,4l-4,5.9c-2.7-2-5.4-3-8-3s-1.6.2-2.1.6c-.5.4-.7.9-.7,1.5s.3,1.2,1,1.6,2,.8,4,1.3c3.6.8,6.3,1.9,8.1,3.3,1.8,1.4,2.7,3.4,2.7,6.1s-1.1,5.4-3.2,7.2-4.9,2.6-8.4,2.6h0Z"/>
      <path class="cls-1" d="M96.1,68.9c-3.5,0-6.4-1.2-8.7-3.6s-3.5-5.2-3.5-8.6,1.2-6.2,3.5-8.6c2.3-2.4,5.3-3.6,8.8-3.6s6.4,1.2,8.7,3.5c2.3,2.4,3.5,5.2,3.5,8.6s-1.2,6.2-3.5,8.6c-2.3,2.4-5.3,3.6-8.8,3.6ZM96.1,62c1.4,0,2.5-.5,3.4-1.5.8-1,1.3-2.2,1.3-3.7s-.4-2.7-1.3-3.7-2-1.5-3.4-1.5-2.5.5-3.4,1.5c-.8,1-1.3,2.2-1.3,3.7s.4,2.7,1.3,3.7,2,1.5,3.4,1.5h0Z"/>
      <path class="cls-1" d="M109.7,68.4v-31.4h7.8v31.4h-7.8Z"/>
      <path class="cls-1" d="M127.2,68.9c-2.3,0-4.2-.8-5.5-2.3-1.3-1.5-2-3.6-2-6.3v-15.2h7.8v12.6c0,1.2.3,2.2.9,2.9.6.7,1.3,1,2.3,1s1.7-.3,2.3-1c.6-.7.9-1.7.9-2.9v-12.6h7.8v23.3h-7.8v-3.2c-1.8,2.5-4.1,3.7-6.6,3.7Z"/>
      <path class="cls-1" d="M152.6,68.9c-5,0-7.5-2.6-7.5-7.7v-9.5h-2.6v-6.6h2.6v-5.9h7.8v5.9h5.2v6.6h-5.2v7.9c0,1.5.7,2.3,2.1,2.3s1.9-.3,2.9-.8v6.4c-1.5.9-3.3,1.3-5.4,1.3h0Z"/>
      <path class="cls-1" d="M159.4,43v-6h8.1v6h-8.1ZM159.6,68.4v-23.3h7.8v23.3h-7.8Z"/>
      <path class="cls-1" d="M181,68.9c-3.5,0-6.4-1.2-8.7-3.6s-3.5-5.2-3.5-8.6,1.2-6.2,3.5-8.6,5.3-3.6,8.8-3.6,6.4,1.2,8.7,3.5c2.3,2.4,3.5,5.2,3.5,8.6s-1.2,6.2-3.5,8.6-5.3,3.6-8.8,3.6ZM181.1,62c1.4,0,2.5-.5,3.4-1.5.9-1,1.3-2.2,1.3-3.7s-.4-2.7-1.4-3.7c-.9-1-2-1.5-3.4-1.5s-2.5.5-3.4,1.5c-.9,1-1.3,2.2-1.3,3.7s.4,2.7,1.4,3.7c.9,1,2,1.5,3.4,1.5h0Z"/>
      <path class="cls-1" d="M194.5,68.4v-23.3h7.8v3.3c1.9-2.5,4.1-3.8,6.6-3.8s4.2.8,5.5,2.3,2,3.6,2,6.3v15.2h-7.8v-12.6c0-1.2-.3-2.2-.8-2.9-.6-.7-1.3-1-2.3-1s-1.8.3-2.4,1-.9,1.7-.9,2.9v12.6h-7.8Z"/>
      <g>
        <path class="cls-1" d="M20.3,2.2v.8c0,1.2,0,2.5,0,3.7,0,.2-.1.4-.2.5-.5.5-1,.9-1.5,1.3-.1.1-.2.3-.2.5,0,.6,0,1.2,0,1.8,0,.1,0,.3.2.4,1.8,1.9,3.7,3.7,5.5,5.5.7.7,1.3,1.4,2,2,.2.2.2.3.1.5-.3.8,0,1.6.8,1.9.8.3,1.6,0,2-.8.4-1-.3-2.1-1.4-2-.3,0-.5,0-.6-.3-2.4-2.4-4.8-4.8-7.2-7.2-.2-.2-.3-.4-.3-.7,0-1.1,0-1.1.8-1.7.4-.3.7-.6,1-.9.1,0,.2-.3.2-.4,0-1.7,0-3.3,0-5,0-.3,0-.4.4-.5.6-.2,1.2-.4,1.9-.5v.5c0,2.4,0,4.8,0,7.2,0,.2.1.4.2.6.6.6,1.2,1.3,1.9,1.9.1.1.1.2,0,.4-.4.9,0,1.8.9,2.2.8.4,1.9,0,2.3-.8.3-.6.3-1.2-.1-1.8-.4-.6-1.1-.9-1.8-.7-.3,0-.5,0-.7-.2-.5-.5-1-1-1.5-1.5,0-.1-.2-.3-.2-.4V1.2c0-.3,0-.4.4-.4C27.8.2,30.5,0,33.2,0c3.9.2,7.7.9,11.2,2.6,1.3.6,2.5,1.3,3.6,2.4,1.9,1.9,2.5,4.2,1.8,6.8-.4,1.3-.8,2.5-1.2,3.8-.3,1-.6,2.1-.5,3.2,0,1.3.5,2.4,1.4,3.2.7.7,1.5,1.3,2.3,2,1.9,1.6,3.5,3.4,4.4,5.8.2.7.2,1.1-.4,1.6-1.8,1.8-3.5,3.6-5.3,5.4-.2.2-.3.5-.3.8,0,1,0,1.9,0,2.9s0,.4-.2.6c-2.7,2.6-5.4,5.2-8.1,7.8,0,0-.2.2-.3.3-.3.4-.6.6-1.2.4-.8-.2-1.8.5-1.9,1.3-.2,1,.4,1.8,1.3,2,.9.2,1.8-.4,2-1.3,0-.2,0-.4,0-.5-.2-.5,0-.8.4-1,2.9-2.8,5.8-5.7,8.8-8.5.2-.2.3-.4.3-.7,0-1.1,0-2.2,0-3.2s0-.2.1-.3c1.7-1.7,3.4-3.5,5.1-5.2,0,0,0,0,.1,0,0,.7.1,1.4.2,2.1,0,.9,0,1.7,0,2.6,0,.2,0,.3-.2.4-2.6,3-5.4,5.9-8.2,8.8-.1.1-.2.3-.4.4-.6.4-.7,1-.7,1.7,0,1.1,0,2.2,0,3.2,0,.2,0,.4-.3.5-2.3,1.6-4.8,3.1-7.3,4.3-.9.4-1.8.9-2.1,1.9-.3.8-.5,1.6-.7,2.4-.2,1-.4,2-.6,2.9-.2.8-.6,1.3-1.3,1.6-.6.2-1.2.4-1.7.5-.8.2-1.4-.2-1.5-1-.2-1-.3-1.9-.4-2.9,0-.3-.1-.5-.2-.8-.1-.3-.4-.5-.7-.5-.3,0-.6.2-.7.5-.1.3-.2.6-.2,1,0,1.5-.1,3-.2,4.5,0,1.1-.5,1.9-1.5,2.4-1.5.7-3.1-.2-3.2-2-.1-1.6-.3-3.2-.5-4.8,0-.3-.1-.5-.3-.8-.1-.3-.4-.4-.8-.4-.4,0-.6.2-.7.6,0,.4-.1.8-.2,1.2,0,.8-.1,1.6-.2,2.4,0,1-.7,1.4-1.7,1-.5-.2-1-.6-1.5-.9-.1,0-.2-.2-.4-.2-.7-.3-.8-.8-.8-1.5,0-2.6,0-5.2,0-7.9,0-.3,0-.5-.3-.7-1.9-1.9-3.7-3.8-5.6-5.6-.2-.2-.3-.3-.3-.7,0-.6-.4-1.3-1-1.6-.6-.3-1.4-.2-1.8.2-.5.4-.7,1.2-.4,1.8,0,.2,0,.4-.1.5-.3.3-.6.6-.9.9-.1.2-.3.2-.5,0-2-.9-3.5-2.3-4.7-4.2-.9-1.4-1-2.8-.5-4.3.2-.7.5-1.4.7-2.2.3-1.4,0-2.7-.9-3.8-.9-1.3-1.4-2.7-1.2-4.2.2-1.1.6-2,1.4-2.8,1.4-1.4,2.9-2.8,4.4-4.2.6-.5,1.1-1,1.7-1.6.2-.2.3-.2.6-.1.8.2,1.6-.1,1.9-.8.3-.7,0-1.5-.5-1.9-.6-.4-1.1-.4-1.7,0-.6.3-.9.9-.7,1.5,0,.4,0,.6-.3.9-1.1,1-2.2,2-3.3,3,0,0-.1.1-.3.1,0-.9.1-1.9.2-2.8,0-.5.2-.9.3-1.4,0-.5.3-.7.6-1,1.1-1,2.2-2.1,3.3-3.1.2-.2.3-.2.6-.2,1.2.2,2.1-.7,1.9-1.8-.2-.8-.9-1.3-1.8-1.1-.7.1-1.4.9-1.2,1.6,0,.5,0,.8-.4,1.1-.7.6-1.4,1.2-2.1,1.9,0-.7,1.4-4.2,2.4-5.9,1.1-1.9,2.5-3.5,4.1-5v.4c0,2.2,0,4.4,0,6.7,0,.3,0,.5.3.7,1.3,1.3,2.5,2.6,3.7,3.8-.4,1.2-.4,1.6.5,2.4-.4.5-.7,1.1-1.1,1.7,0,0-.2,0-.3,0-.9,0-1.6.8-1.7,1.7,0,.9.7,1.6,1.6,1.7.9,0,1.7-.6,1.8-1.5,0-.4,0-.8-.4-1.2-.1-.2-.1-.3,0-.4.4-.6.7-1.2,1.1-1.8,0-.1.2-.2.3-.3.7-.4,1-1,.8-1.8-.2-.7-.7-1.1-1.5-1.1-.1,0-.3,0-.4-.2-1.1-1.2-2.3-2.4-3.4-3.6-.1-.1-.2-.3-.2-.5,0-2.5,0-5.1,0-7.6s0-.3.1-.4c1.1-1,2.3-1.8,3.6-2.6,0,.7,0,1.3,0,1.9-.2,2.4-.2,4.8-.2,7.2,0,.2,0,.4.2.5,1.3,1.3,2.5,2.6,3.8,3.8.4.4.8.6,1.2.9.2.1.3.3.3.5,0,1.3,0,2.7,0,4,0,.1-.1.3-.2.4-.8.5-1.1,1.3-.8,2.1.3.8,1.1,1.2,2,1,.6-.1,1.2-.7,1.4-1.3.1-.7,0-1.3-.7-1.7-.4-.2-.5-.5-.5-.9,0-1.4,0-2.7,0-4.1,0-.2,0-.4-.2-.5-1.8-1.1-3.1-2.7-4.6-4.1-.6-.5-.8-1.1-.8-1.9.1-2.6.2-5.2.3-7.9,0-.6.2-.9.8-1.1.9-.3,1.7-.7,2.6-1.1h0ZM47.8,33.9c0-5.2-4.2-8.9-9.1-8.8-5.2,0-9.2,4.5-9.1,9.3.1,4.9,4.3,8.8,9.4,8.7,5.3-.1,9-4.6,8.9-9.1ZM11.6,42.6c.6,0,1.2-.1,1.7-.3,1.3-.3,2.5-1,3.5-1.8,1-.8,1.9-1.7,2.9-2.6.6-.6.6-1.2-.1-1.7-.2-.1-.3-.2-.5-.4-2.6-1.6-5.2-3.2-7.8-4.8-.8-.5-1.7-1-2.7-1.3-1.1-.5-2.3-.7-3.5-.5-1,.2-1.5.8-1.5,1.8,0,.6.1,1.2.3,1.7.6,1.9,1.1,3.9,1.5,5.9,0,.7.3,1.3.8,1.8,1.5,1.5,3.3,2.3,5.4,2.4h0ZM30,48.9c0-.3-.2-.9-.4-1.4-.7-2-1.8-3.7-2.9-5.5-.5-.7-1-1.4-1.5-2.1-.5-.7-1.2-.7-1.8,0-.1.1-.2.3-.3.4-.5.9-1.1,1.8-1.5,2.7-.7,1.5-1.4,3.1-2,4.6-.2.5-.3,1-.3,1.5,0,1.3,1.2,2.1,2.4,1.6.2,0,.5-.2.7-.4.5-.3,1-.6,1.5-.9.5-.3,1-.3,1.5,0,.1,0,.3.2.4.3.6.3,1.1.7,1.7,1,1.2.6,2.4-.1,2.5-1.8h0Z"/>
        <path class="cls-1" d="M16.3,63.8c-1.4-.6-2-1.7-2-3.2,0-.8,0-1.7,0-2.5,0-1.7-.6-3-1.8-4.2-1.2-1.2-2.6-2.1-4.2-2.7,0,0-.1,0-.3-.1.3-.3.7-.7,1-1,0,0,.1,0,.2,0,.5,0,1,0,1.3-.2,1,.9,1.9,1.8,2.9,2.7.9.9,1.8,1.9,2.7,2.8,0,0,.2.2.2.3v8s0,0,0,0h0Z"/>
        <path class="cls-1" d="M48.4,50.9c0-.8,0-1.4,0-2.1,0-.9.2-1.5.9-2.1,2.3-2.3,4.6-4.7,6.9-7.1,0,0,.1-.2.2-.2-.4,2.8-1.2,5.3-3.3,7.4-1.4,1.3-2.7,2.7-4.2,3.8-.1,0-.2.2-.4.3h0Z"/>
        <path class="cls-1" d="M27.6,11.7c.4,0,.8.3.8.8s-.3.8-.8.8-.8-.3-.8-.8c0-.4.3-.8.8-.8Z"/>
        <path class="cls-1" d="M21.7,25.8c-.4,0-.8-.4-.8-.7,0-.4.4-.7.8-.7.4,0,.8.4.8.8,0,.4-.4.7-.8.7h0Z"/>
        <path class="cls-1" d="M40.8,51.3c0,.4-.3.7-.7.7s-.7-.3-.7-.7c0-.4.3-.7.7-.8.4,0,.7.3.7.7h0Z"/>
        <path class="cls-1" d="M14.8,25.5c0,.4-.4.7-.8.7-.4,0-.7-.3-.7-.8,0-.4.3-.7.7-.7.4,0,.7.3.7.7h0Z"/>
        <path class="cls-1" d="M9.1,48.4c0-.4.3-.7.7-.7s.7.3.7.7c0,.4-.3.7-.7.7-.4,0-.7-.3-.7-.7h0Z"/>
        <path class="cls-1" d="M8.5,22.2c-.4,0-.6-.3-.6-.6,0-.3.3-.6.7-.6.4,0,.6.3.6.6,0,.3-.3.6-.6.6h0Z"/>
        <path class="cls-1" d="M16.1,20.1c.3,0,.6.3.6.6s-.3.6-.6.6c-.4,0-.6-.2-.6-.6s.3-.6.6-.6h0Z"/>
        <path class="cls-1" d="M9.1,15.9c0,.3-.3.6-.6.6-.3,0-.6-.3-.6-.6s.3-.6.6-.6.6.3.6.6h0Z"/>
      </g>
    </g>
  </g>
</svg>